<svg width="200" height="200" fill="none" xmlns="http://www.w3.org/2000/svg"><path d="M41.02 109.486L22.32 141.922a3.033 3.033 0 002.61 4.527h37.39a.305.305 0 00.296-.239.302.302 0 00-.171-.34c-3.387-1.489-12.042-5.949-16.9-14.371-4.856-8.421-4.372-18.149-3.975-21.831a.299.299 0 00-.548-.182z" fill="url(#paint0_linear)"/><path d="M102.63 11.652a3.033 3.033 0 00-2.61-1.496 3.024 3.024 0 00-2.61 1.496l-10.307 17.88a24.737 24.737 0 000 24.716l39.692 68.83a23.378 23.378 0 010 23.358h48.326a3.022 3.022 0 002.598-1.516 3.031 3.031 0 00.012-3.011L102.63 11.652z" fill="url(#paint1_linear)"/><path d="M158.982 90.514l18.698-32.45a3.028 3.028 0 00-.011-3.011 3.03 3.03 0 00-2.599-1.516h-37.401a.303.303 0 00-.121.58c3.374 1.502 12.042 5.969 16.9 14.39 4.857 8.422 4.372 18.15 3.972 21.832a.302.302 0 00.41.302.305.305 0 00.152-.127z" fill="url(#paint2_linear)"/><path d="M97.362 188.348a3.03 3.03 0 002.61 1.496 3.027 3.027 0 002.61-1.496l10.307-17.881a24.727 24.727 0 000-24.712L73.198 76.908a23.388 23.388 0 010-23.357H24.875a3.024 3.024 0 00-2.592 1.51 3.034 3.034 0 00-.021 3.004l75.1 130.283z" fill="url(#paint3_linear)"/><defs><linearGradient id="paint0_linear" x1="42.273" y1="109.352" x2="42.273" y2="146.449" gradientUnits="userSpaceOnUse"><stop stop-color="#B5DCE5"/><stop offset="1" stop-color="#00A3D0"/></linearGradient><linearGradient id="paint1_linear" x1="130.96" y1="10.156" x2="130.96" y2="146.436" gradientUnits="userSpaceOnUse"><stop stop-color="#B5DCE5"/><stop offset="1" stop-color="#00A3D0"/></linearGradient><linearGradient id="paint2_linear" x1="157.722" y1="53.537" x2="157.722" y2="90.661" gradientUnits="userSpaceOnUse"><stop stop-color="#B5DCE5"/><stop offset="1" stop-color="#00A3D0"/></linearGradient><linearGradient id="paint3_linear" x1="69.036" y1="53.551" x2="69.036" y2="189.844" gradientUnits="userSpaceOnUse"><stop stop-color="#B5DCE5"/><stop offset="1" stop-color="#00A3D0"/></linearGradient></defs></svg>
